<svg aria-hidden="true" style="position: absolute; width: 0; height: 0; overflow: hidden;" version="1.1" xmlns="http://www.w3.org/2000/svg" xmlns:xlink="http://www.w3.org/1999/xlink">
<defs>
<symbol id="icon-views" viewBox="0 0 32 32">
<path d="M31.428 15.268c-0.28-0.358-6.943-8.761-15.428-8.761s-15.149 8.403-15.429 8.761l-0.572 0.732 0.572 0.732c0.28 0.358 6.943 8.761 15.429 8.761s15.148-8.403 15.428-8.761l0.572-0.732-0.572-0.732zM16 23.116c-5.968 0-11.177-5.167-12.929-7.116 1.753-1.949 6.961-7.116 12.929-7.116s11.176 5.167 12.928 7.116c-1.753 1.949-6.962 7.116-12.928 7.116z"></path>
<path d="M16 9.499c-3.585 0-6.502 2.916-6.502 6.501s2.917 6.502 6.502 6.502 6.502-2.917 6.502-6.502c0-3.585-2.917-6.501-6.502-6.501zM16 20.125c-2.275 0-4.125-1.851-4.125-4.126s1.85-4.125 4.125-4.125c2.275 0 4.125 1.85 4.125 4.125s-1.851 4.126-4.125 4.126z"></path>
</symbol>
<symbol id="icon-comments" viewBox="0 0 32 32">
<path d="M28.4 28c1.2-1 3.6-3.2 3.6-6.4 0-2.8-2.4-5.2-5.6-6.6 1-1.2 1.6-3 1.6-4.8 0-5.6-5.8-10.2-13.2-10.2-7 0-14.8 4.2-14.8 10.2 0 4.2 3.2 7.2 4.6 8.4-0.2 2.4-1.2 3.4-1.2 3.4l-2.4 2h3c2.4 0 4.4-0.6 6-1.4 0.6 3.8 5 6.8 10.6 6.8 0.2 0 0.6 0 1 0 1.2 1 3.6 2.6 7 2.6h2.8l-2.2-1.8c0 0-0.6-0.6-0.8-2.2zM20.6 27.4c-4.6 0-8.6-2.6-8.6-5.6 0-0.2 0-0.2 0-0.4 0.4-0.4 0.8-0.6 1-1 0.4 0 1 0 1.4 0 4.2 0 8-1.4 10.4-3.8 3 1 5.2 3 5.2 5s-1.8 4-3.4 5l-0.6 0.4v0.6c0 1 0.4 1.6 0.6 2.2-2-0.4-3.4-1.4-3.8-2l-0.2-0.4h-0.4c-0.6 0-1.2 0-1.6 0zM14.8 2c6.2 0 11.2 3.8 11.2 8.2s-5.2 8.2-11.6 8.2c-0.4 0-1.2 0-1.6 0h-0.6l-0.2 0.4c-0.6 0.8-3 2.4-6.2 3 0.2-0.8 0.2-2 0.2-3.6v-0.6c-2-1.6-4.2-4.4-4.2-7.2 0-4.4 6.4-8.4 13-8.4z"></path>
</symbol>
<symbol id="icon-likes" viewBox="0 0 32 32">
<path d="M7.969 24.663c0 0.597-0.484 1.081-1.081 1.081s-1.081-0.484-1.081-1.081c0-0.597 0.484-1.081 1.081-1.081s1.081 0.484 1.081 1.081z"></path>
<path d="M31.351 18.83c0-0.531-0.165-1.025-0.445-1.433 0.66-0.458 1.094-1.222 1.094-2.085 0-1.399-1.138-2.537-2.536-2.537h-6.668l0.422-0.947c0.617-1.385 0.932-2.856 0.936-4.372 0 0 0.004-1.85 0.004-1.861 0-1.437-1.169-2.607-2.607-2.607-1.069 0-2.018 0.64-2.418 1.631-0.018 0.044-0.624 1.831-0.624 1.831-0.547 1.589-1.518 2.999-2.807 4.078l-3.093 2.588h-1.788v-0.816c0-0.858-0.698-1.555-1.555-1.555h-7.709c-0.858 0-1.555 0.698-1.555 1.555v15.157c0 0.858 0.698 1.555 1.555 1.555h7.709c0.858 0 1.555-0.698 1.555-1.555v-1.218h0.976l0.969 0.469c2.293 1.108 4.851 1.694 7.398 1.694h7.354c1.399 0 2.537-1.138 2.537-2.536 0-0.531-0.165-1.025-0.445-1.433 0.66-0.458 1.094-1.222 1.094-2.085 0-0.531-0.165-1.025-0.445-1.433 0.66-0.458 1.094-1.222 1.094-2.085zM9.264 27.456h-7.709v-15.157h7.709l0.001 15.157c0 0-0 0-0.001 0zM29.464 16.293h-1.107c-0.43 0-0.778 0.348-0.778 0.778s0.348 0.778 0.778 0.778h0.458c0.541 0 0.981 0.44 0.981 0.981s-0.44 0.981-0.981 0.981h-1.107c-0.43 0-0.778 0.348-0.778 0.778s0.348 0.778 0.778 0.778h0.458c0.541 0 0.981 0.44 0.981 0.981s-0.44 0.981-0.981 0.981h-1.107c-0.43 0-0.778 0.348-0.778 0.778s0.348 0.778 0.778 0.778h0.458c0.541 0 0.981 0.44 0.981 0.981s-0.44 0.981-0.981 0.981h-7.354c-2.314 0-4.638-0.532-6.721-1.539l-1.13-0.546c-0.105-0.051-0.221-0.078-0.338-0.078h-1.154v-10.012h2.071c0.182 0 0.359-0.064 0.499-0.181l3.31-2.769c1.506-1.26 2.64-2.908 3.279-4.764 0 0 0.619-1.801 0.622-1.814 0.174-0.366 0.54-0.599 0.949-0.599 0.58 0 1.052 0.472 1.052 1.052 0 0.010-0.004 1.858-0.004 1.858-0.003 1.298-0.272 2.557-0.801 3.742l-0.906 2.031c-0.079 0.178-0.086 0.37-0.033 0.543 0.004 0.015 0.172 0.562 0.747 0.562h7.859c0.541 0 0.981 0.44 0.981 0.981s-0.44 0.981-0.981 0.981z"></path>
</symbol>
<symbol id="icon-downloads" viewBox="0 0 32 32">
<path d="M14.971 25.755c0.034 0.034 0.070 0.066 0.107 0.097 0.016 0.013 0.034 0.025 0.050 0.038 0.021 0.016 0.042 0.032 0.064 0.047 0.021 0.014 0.042 0.026 0.063 0.038 0.020 0.012 0.039 0.024 0.059 0.035 0.022 0.012 0.044 0.021 0.066 0.032 0.021 0.010 0.041 0.020 0.063 0.029s0.044 0.016 0.066 0.024c0.023 0.008 0.045 0.017 0.069 0.024 0.022 0.007 0.044 0.012 0.066 0.017 0.024 0.006 0.047 0.013 0.072 0.018 0.025 0.005 0.051 0.008 0.077 0.012 0.021 0.003 0.042 0.007 0.064 0.009 0.048 0.005 0.096 0.007 0.143 0.007s0.096-0.003 0.143-0.007c0.022-0.002 0.043-0.006 0.065-0.009 0.025-0.004 0.051-0.007 0.076-0.012s0.049-0.012 0.073-0.018c0.022-0.006 0.043-0.010 0.065-0.017 0.024-0.007 0.047-0.016 0.070-0.025 0.021-0.008 0.043-0.015 0.064-0.023s0.043-0.020 0.064-0.030c0.022-0.010 0.044-0.020 0.065-0.031s0.040-0.023 0.059-0.035c0.021-0.013 0.042-0.024 0.063-0.038 0.022-0.014 0.042-0.030 0.062-0.046 0.017-0.013 0.035-0.025 0.052-0.039 0.035-0.029 0.069-0.060 0.102-0.092 0.002-0.002 0.003-0.003 0.005-0.004l6.788-6.788c0.568-0.568 0.568-1.489 0-2.057s-1.489-0.568-2.057-0l-4.305 4.305v-19.761c0-0.803-0.651-1.455-1.455-1.455s-1.455 0.651-1.455 1.455v19.761l-4.305-4.305c-0.568-0.568-1.489-0.568-2.057 0s-0.568 1.489 0 2.057l6.787 6.787z"></path>
<path d="M30.545 29.091h-29.091c-0.803 0-1.455 0.651-1.455 1.455s0.651 1.455 1.455 1.455h29.091c0.803 0 1.455-0.651 1.455-1.455s-0.651-1.455-1.455-1.455z"></path>
</symbol>
</defs>
</svg>
